<svg xmlns="http://www.w3.org/2000/svg" width="512" height="512" viewBox="0 0 64 64" fill="none"><defs><linearGradient id="fxaeon" x1="8" y1="8" x2="56" y2="56" gradientUnits="userSpaceOnUse"><stop stop-color="#e4d7ff"/><stop offset=".48" stop-color="#b89aff"/><stop offset="1" stop-color="#8053cd"/></linearGradient></defs><path d="M8 26.5C8 15.7 16.6 7 27.3 7H48c3.6 0 5.6 4.1 3.4 7L40.7 28.2A16 16 0 0 1 27.9 34H15.5A7.5 7.5 0 0 1 8 26.5Z" fill="url(#fxaeon)"/><path d="M56 37.5C56 48.3 47.4 57 36.7 57H16c-3.6 0-5.6-4.1-3.4-7l10.7-14.2A16 16 0 0 1 36.1 30h12.4a7.5 7.5 0 0 1 7.5 7.5Z" fill="url(#fxaeon)" stroke="#0d0b14" stroke-width="2.5"/><path d="M24 32h16" stroke="#fff" stroke-opacity=".92" stroke-width="3" stroke-linecap="round"/></svg>